<svg xmlns="http://www.w3.org/2000/svg"
     x="0px"
     y="0px"
     width="50"
     height="50"
     viewBox="0 0 226 226"
     style=" fill:#000000;">
<g fill="none"
   fill-rule="nonzero"
   stroke="none"
   stroke-width="1"
   stroke-linecap="butt"
   stroke-linejoin="miter"
   stroke-miterlimit="10"
   stroke-dasharray=""
   stroke-dashoffset="0"
   font-family="none"
   font-weight="none"
   font-size="none"
   text-anchor="none"
   style="mix-blend-mode: normal">
<path d="M0,226v-226h226v226z"
      fill="none" />
<g fill="#cccccc">
<path d="M113,9.07531c-57.36198,0 -103.96,46.59802 -103.96,103.96c0,54.71211 42.40352,99.59993 96.09414,103.63336c0.10585,0.0086 0.21175,0.01821 0.31781,0.02648c2.49652,0.17989 5.00614,0.30016 7.54805,0.30016c2.54191,0 5.05153,-0.12026 7.54805,-0.30016c0.10606,-0.00827 0.21196,-0.01788 0.31781,-0.02648c53.69062,-4.03343 96.09414,-48.92125 96.09414,-103.63336c0,-57.36198 -46.59802,-103.96 -103.96,-103.96zM113,18.11531c52.4764,0 94.92,42.44359 94.92,94.92c0,25.9073 -10.37425,49.3415 -27.16414,66.45813c-7.183,-5.23063 -16.05974,-8.35093 -24.0125,-11.14109c-9.41968,-3.2996 -18.33114,-6.42744 -20.79906,-11.865c-0.38872,-4.64204 -0.35397,-8.26708 -0.31781,-12.43l0.00883,-1.76562c4.01376,-3.8194 9.06133,-11.88033 10.78797,-19.32477c2.9832,-1.59104 6.63077,-5.405 7.72461,-14.53992c0.54692,-4.53356 -0.74333,-8.04461 -2.55133,-10.39953c2.4408,-8.3846 7.29719,-29.61066 -1.20945,-43.31078c-3.59792,-5.79012 -9.02721,-9.4432 -16.1643,-10.88508c-4.00924,-4.96296 -11.57494,-7.67164 -21.6907,-7.67164c-15.37252,0.28476 -26.64201,4.99326 -33.47625,13.99258c-8.05916,10.622 -9.58198,26.67068 -4.53766,47.72484c-1.86676,2.35492 -3.21322,5.91682 -2.65726,10.54078c1.09836,9.13492 4.73258,12.94888 7.71578,14.53992c1.72664,7.45348 6.76969,15.51419 10.78797,19.33359l0.00883,1.72148c0.03616,4.181 0.07091,7.81402 -0.31781,12.47414c-2.47696,5.45112 -11.43129,8.613 -20.89617,11.95328c-7.90501,2.79139 -16.7292,5.9165 -23.89773,11.0793c-16.80289,-17.11856 -27.1818,-40.56598 -27.1818,-66.48461c0,-52.4764 42.4436,-94.92 94.92,-94.92z" />
</g>
</g>
</svg>